<?xml version="1.0" encoding="utf-8"?>
<!-- Generator: Adobe Illustrator 23.1.0, SVG Export Plug-In . SVG Version: 6.00 Build 0)  -->
<svg version="1.1" id="Слой_1" xmlns="http://www.w3.org/2000/svg" xmlns:xlink="http://www.w3.org/1999/xlink" x="0px" y="0px"
	 viewBox="0 0 840 798" style="enable-background:new 0 0 840 798;" xml:space="preserve">
<style type="text/css">
	.st0{clip-path:url(#SVGID_2_);}
	.st1{fill-rule:evenodd;clip-rule:evenodd;fill:#979797;}
	.st2{fill-rule:evenodd;clip-rule:evenodd;fill:#FFFFFF;}
	.st3{fill:#FFFFFF;}
</style>
<g>
	<defs>
		<rect id="SVGID_1_" x="280" y="266" width="280" height="266"/>
	</defs>
	<clipPath id="SVGID_2_">
		<use xlink:href="#SVGID_1_"  style="overflow:visible;"/>
	</clipPath>
	<g class="st0">
		<path class="st1" d="M355.3,415.4l73.6-119.6L398.4,266C398.4,266,356.5,416.5,355.3,415.4z"/>
		<path class="st2" d="M517.1,416.2l28.7,34.6H560v17.6h-48v-15.7H522l-17.7-23.9l-17.8,23.9h10.1v15.7h-48v-17.6H463l28.4-34.6
			l-28.2-33.8h-13.6v-17.6h47.1v14.7h-10.2l17.9,23.8l17.7-23.8h-10.9v-14.7h47.1v17.6h-13.5L517.1,416.2z"/>
		<path class="st2" d="M448.3,468.4c-2.5,0.1-15-0.1-16.2,0c-8.6,0.8-20-3.6-33.8-13.3c-13.6,8.9-27.8,13.3-42.7,13.3
			c-10,0-19.7-1.9-29-5.7c-9.3-3.7-17.4-9.1-24.4-16c-7.5-7.5-13.2-16.3-17.1-26.4c-3.5-9-5.2-18.2-5.2-27.9
			c0-20.4,7.1-37.9,21.3-52.6c7.1-7.3,15.3-13,24.6-16.9c9.3-3.9,19.1-5.9,29.3-5.9c10.2,0,20,2,29.3,6c9.3,4,17.6,9.6,24.8,16.9
			c14.1,14.6,21.2,32.1,21.2,52.7c0,19.4-6.4,36-19.1,49.8c7.3,4.9,14.1,7.7,20.7,8.2L448.3,468.4z M394.8,428.1
			c9.1-10.2,13.7-21.8,13.7-34.8c0-14.4-4.8-26.8-14.3-37.2c-10.8-11.5-23.9-17.3-39.6-17.3c-13.8,0-25.8,4.7-35.9,14
			c-5.4,4.9-9.5,10.7-12.5,17.3c-3,6.6-4.5,13.2-4.5,20c0,3.3,0.8,7.2,2.2,11.5c9.5-3.2,18.9-4.9,28.2-4.9c13.9,0,27.2,4.1,40,12.2
			C378.2,412.9,385.8,419.3,394.8,428.1z M381.3,439.6c-9.1-8.5-16.2-14.3-21.3-17.2c-9.3-5.5-19-8.3-29.3-8.3
			c-7.6,0-15,1.6-22.2,4.9c4.1,7.6,9.7,13.8,16.6,18.5c9.1,6.2,19.3,9.3,30.4,9.3C364.6,446.8,373.2,444.4,381.3,439.6z"/>
		<path class="st3" d="M530.9,450.8H429.3v17.6h101.6V450.8z"/>
		<path class="st3" d="M311.8,387.7h-20v7.1h20V387.7z"/>
		<path class="st3" d="M418.5,389.7h-20v7.1h20V389.7z"/>
		<path class="st3" d="M382.4,334.8l-10,17.3l6.2,3.6l10-17.3L382.4,334.8z"/>
		<path class="st3" d="M409.3,362.1l-17.3,10l3.6,6.2l17.3-10L409.3,362.1z"/>
		<path class="st3" d="M325.6,335.8l-6.2,3.6l10,17.3l6.2-3.6L325.6,335.8z"/>
		<path class="st3" d="M301.8,357.3l-3.6,6.2l17.3,10l3.6-6.2L301.8,357.3z"/>
		<path class="st2" d="M355.3,415.3l88.3-109.2l-26.4-33.4C417.1,272.7,356.3,416.6,355.3,415.3z"/>
		<path class="st2" d="M327.5,524.8h5.1v7.1c-0.8,0-1.4,0.1-1.8,0.1c-4.9,0-9.6-1.5-13.8-4.5c-4.2,2.8-8.7,4.2-13.3,4.2
			c-3.1,0-6.1-0.6-9-1.8c-2.9-1.2-5.4-2.8-7.6-5c-2.4-2.3-4.1-5.1-5.3-8.2c-1.1-2.8-1.6-5.7-1.6-8.7c0-6.4,2.2-11.8,6.7-16.4
			c2.2-2.3,4.8-4,7.7-5.3c2.9-1.2,6-1.8,9.1-1.8c3.2,0,6.2,0.6,9.2,1.9c2.9,1.2,5.5,3,7.7,5.3c4.4,4.5,6.6,10,6.6,16.4
			c0,6.1-2,11.3-6,15.6c2.3,1.5,4.8,1.1,6.8,1.3H327.5z M315.9,519c2.9-3.2,4.3-6.8,4.3-10.9c0-4.5-1.5-8.4-4.5-11.6
			c-3.4-3.6-7.5-5.4-12.4-5.4c-4.3,0-8.1,1.5-11.2,4.4c-1.7,1.5-3,3.3-3.9,5.4s-1.4,4.1-1.4,6.2c0,1,0.2,2.3,0.7,3.6
			c3-1,5.9-1.5,8.8-1.5c4.3,0,8.5,1.3,12.5,3.8C310.7,514.3,313,516.3,315.9,519z M311.7,522.6c-2.8-2.7-5.1-4.5-6.6-5.4
			c-2.9-1.7-6-2.6-9.2-2.6c-2.4,0-4.7,0.5-6.9,1.5c1.3,2.4,3,4.3,5.2,5.8c2.9,1.9,6,2.9,9.5,2.9
			C306.4,524.9,309.1,524.1,311.7,522.6z M366.4,497.1v27.7h4.9v5.7h-10.5v-4.9c-1.3,1.8-2.8,3.2-4.6,4.2c-1.8,1-3.8,1.4-6,1.4
			c-2.3,0-4.4-0.6-6.4-1.7c-4.2-2.4-6.3-6.3-6.3-11.8v-15h-4.9v-5.7h11v18.7c0,3,0.8,5.3,2.3,6.9c1.6,1.6,3.6,2.5,6,2.5
			c2.8,0,5.1-1.1,6.8-3.2c1.2-1.5,1.7-3.5,1.7-6.2v-12.9h-4.9v-5.7L366.4,497.1L366.4,497.1z M410.9,502.8v22h4.9v5.7h-11v-5.6
			c-1,1.3-1.9,2.4-2.7,3.1c-2.5,2.1-5.7,3.2-9.4,3.2c-4.4,0-8.3-1.5-11.5-4.6c-3.6-3.4-5.4-7.6-5.4-12.6c0-2.3,0.4-4.5,1.3-6.6
			c0.9-2.2,2.1-4.1,3.7-5.7c3.3-3.5,7.4-5.2,12.2-5.2c5,0,8.9,2.1,11.9,6.4v-5.8h11v5.7H410.9z M393.3,502.5c-3.1,0-5.7,1.1-7.9,3.3
			c-2.2,2.2-3.3,4.9-3.3,8c0,3.1,1.1,5.8,3.3,8c2.2,2.2,4.9,3.3,8,3.3c3.2,0,5.9-1.1,8.1-3.3c2.3-2.2,3.4-4.9,3.4-8.1
			c0-3.2-1.1-5.9-3.4-8C399.2,503.6,396.5,502.5,393.3,502.5z M431.5,497.1v6.2c2-4.1,5.5-6.3,10.4-6.5v6.2c-2.9,0.1-5.2,1-7.1,2.7
			c-1.9,1.8-2.9,4.3-2.9,7.6v11.5h4.9v5.7H421v-5.7h4.9v-22H421v-5.7L431.5,497.1L431.5,497.1z M479.1,485.5v39.3h4.9v5.7h-10.9v-6
			c-1,1.5-2,2.5-2.9,3.3c-2.6,2.2-5.7,3.3-9.4,3.3c-2.1,0-4.2-0.4-6.3-1.3c-2.1-0.9-3.9-2.1-5.5-3.6c-3.6-3.4-5.3-7.6-5.3-12.6
			c0-4.8,1.7-8.8,5.1-12.2c1.6-1.6,3.5-2.8,5.5-3.7c2.1-0.9,4.2-1.3,6.4-1.3c5.1,0,9.2,2.2,12.4,6.7v-12h-4.9v-5.7L479.1,485.5
			L479.1,485.5z M461.4,502.1c-3.1,0-5.8,1.1-8.1,3.4c-2.3,2.3-3.4,5-3.4,8.2c0,3.2,1.1,5.9,3.4,8.1c2.3,2.2,5,3.3,8.2,3.3
			c3.2,0,6-1.1,8.3-3.4c2.3-2.2,3.5-4.9,3.5-8c0-3.3-1.2-6-3.5-8.2C467.4,503.2,464.7,502.1,461.4,502.1z M515.3,520.9h6.4
			c-1.1,2.4-2.5,4.4-4.2,5.9c-3.3,3.1-7.2,4.6-11.6,4.6c-2.3,0-4.5-0.5-6.8-1.3c-2.2-0.9-4.1-2.1-5.7-3.8c-3.4-3.4-5.1-7.5-5.1-12.4
			c0-4.6,1.5-8.5,4.5-11.9c3.5-3.8,7.7-5.7,12.7-5.7c3.8,0,7.3,1.1,10.4,3.4c3.1,2.3,5.1,5.2,6.1,8.7c0.5,1.9,0.8,3.7,0.8,5.4
			c0,0.5,0,1.2-0.1,2.2h-28.6c0.5,2.7,1.5,4.8,3.1,6.4c2.4,2.4,5.2,3.5,8.4,3.5C509.8,526,513,524.3,515.3,520.9z M517.4,511.3
			c-0.5-2.4-1.6-4.4-3.1-6c-2.4-2.5-5.3-3.7-8.7-3.7s-6.3,1.3-8.7,4c-1.3,1.5-2.2,3.4-2.7,5.6L517.4,511.3L517.4,511.3z
			 M546.2,513.7l9.2,11.1h4.6v5.7h-15.5v-5h3.2l-5.7-7.7l-5.7,7.7h3.3v5h-15.4v-5.7h4.6l9.1-11.1l-9.1-10.9h-4.4v-5.7h15.2v4.7h-3.3
			l5.8,7.7l5.7-7.7h-3.5v-4.7h15.2v5.7h-4.4L546.2,513.7z"/>
		<path class="st3" d="M560,524.8H331.5v7.1H560V524.8z"/>
	</g>
</g>
</svg>
